<svg width="91" height="107" viewBox="0 0 91 107" fill="none" xmlns="http://www.w3.org/2000/svg">
<path d="M0 28.0567V82.5123L42.4075 106.809L90.2907 78.4789V24.0233" fill="black"/>
<path d="M0 28.0567V82.5123L42.4075 106.809L90.2907 78.4789V24.0233" fill="#FF9271"/>
<path d="M42.4085 52.354V106.809L90.2917 78.4789V24.0233L42.4085 52.354Z" fill="#DF5C34"/>
<path d="M0 28.0557L49.2039 0L90.2917 24.0253L42.4085 52.3549L0 28.0557Z" fill="#F47B56"/>
<path d="M43.5341 12.4984C48.523 12.1614 53.5041 13.2589 57.8899 15.6614C60.4019 17.1393 61.7741 18.6819 61.9682 20.2902C62.1622 21.8975 61.3336 23.2975 59.3793 24.4782C58.4524 25.0512 57.4311 25.455 56.3631 25.671C55.485 25.8783 54.5846 25.9692 53.6833 25.9429L52.6991 25.8651C52.7911 26.0845 52.8517 26.316 52.881 26.5525C52.8501 27.1121 52.6712 27.6535 52.3626 28.1214C51.8501 28.991 51.1184 29.7108 50.2406 30.2088C48.1947 31.4249 45.8498 32.0446 43.4705 31.9981C41.0085 32.0643 38.5759 31.4497 36.4406 30.222C34.4207 29.0291 33.386 27.6281 33.3082 26.0208C33.3158 25.1695 33.5625 24.3375 34.0203 23.6198C34.4781 22.9021 35.1284 22.3277 35.897 21.9621C36.6344 21.5021 37.4375 21.1568 38.2787 20.9381C38.9494 20.7444 39.6399 20.6271 40.337 20.5884H41.0494L39.754 19.81L43.3917 17.5416L51.819 22.507C52.4634 22.8541 53.1838 23.0358 53.9157 23.0358C54.6476 23.0358 55.368 22.8541 56.0124 22.507C57.8 21.392 57.1613 19.9273 54.0976 18.1117C50.8415 16.3182 47.1401 15.4949 43.4311 15.7392C39.4999 15.7875 35.6541 16.8937 32.2977 18.9417C29.243 20.8522 27.7283 23.1297 27.7546 25.7751C27.7546 28.367 29.3724 30.6758 32.518 32.5298C35.9512 34.4507 39.8504 35.3799 43.7807 35.2136C47.6935 35.2776 51.5472 34.254 54.913 32.2568C56.0782 31.5662 57.1232 30.6904 58.0071 29.664C58.5982 29.0359 59.0402 28.2827 59.3005 27.4603L59.4824 26.6435L64.2852 26.9154C64.2933 27.062 64.2933 27.2086 64.2852 27.3561C64.1973 27.753 64.0805 28.1429 63.9355 28.5227C63.727 29.1321 63.4489 29.7155 63.107 30.2614C62.6137 30.996 62.041 31.674 61.3993 32.2831C60.5526 33.1003 59.6191 33.8223 58.6154 34.4363C55.7254 36.1718 52.5242 37.3256 49.1918 37.8328C45.5604 38.4673 41.8524 38.5327 38.2009 38.0269C34.8816 37.6355 31.6735 36.5863 28.7641 34.9407C26.4148 33.6964 24.5337 31.7216 23.4045 29.3142C22.943 28.2639 22.7047 27.1291 22.7047 25.9819C22.7047 24.8346 22.943 23.6998 23.4045 22.6495C24.5231 20.1981 26.3848 18.1613 28.7257 16.8279C33.1859 14.0855 38.2997 12.59 43.5341 12.4974V12.4984ZM48.246 25.9045C48.0742 25.0039 47.4679 24.2467 46.6282 23.8818C45.6085 23.2806 44.4469 22.9627 43.2633 22.9609C42.163 22.9191 41.0744 23.1984 40.1298 23.7645C39.7493 23.9504 39.4272 24.2374 39.1989 24.5942C38.9706 24.951 38.8448 25.3637 38.8354 25.7873C38.9537 26.6869 39.5327 27.4593 40.3633 27.8232C41.4062 28.4194 42.5919 28.7199 43.7928 28.6925C44.9474 28.7213 46.0869 28.4246 47.0809 27.8363C47.4495 27.6675 47.7609 27.3948 47.9772 27.0518C48.1934 26.7087 48.3051 26.3101 48.2985 25.9045" fill="#3E2928"/>
</svg>
